<?xml version="1.0" encoding="UTF-8"?><svg id="Ebene_1" xmlns="http://www.w3.org/2000/svg" width="151.9mm" height="34.064mm" xmlns:xlink="http://www.w3.org/1999/xlink" viewBox="0 0 430.58268 96.55937"><defs><style>.cls-1{fill:url(#Unbenannter_Verlauf_11-3);}.cls-2{fill:url(#Unbenannter_Verlauf_11-2);}.cls-3{fill:#fff;}.cls-4{fill:url(#Unbenannter_Verlauf_11);}</style><linearGradient id="Unbenannter_Verlauf_11" x1="17.74371" y1="56.96796" x2="90.2919" y2="56.96796" gradientUnits="userSpaceOnUse"><stop offset="0" stop-color="#06a"/><stop offset=".00657" stop-color="#06a"/><stop offset=".2601" stop-color="#1783c2"/><stop offset=".51222" stop-color="#2798d3"/><stop offset=".76043" stop-color="#31a4dd"/><stop offset="1" stop-color="#35a9e1"/></linearGradient><linearGradient id="Unbenannter_Verlauf_11-2" x1="0" y1="48.35115" x2="74.39801" y2="48.35115" xlink:href="#Unbenannter_Verlauf_11"/><linearGradient id="Unbenannter_Verlauf_11-3" x1="16.06671" y1="37.56372" x2="90.29091" y2="37.56372" xlink:href="#Unbenannter_Verlauf_11"/></defs><g><path class="cls-4" d="M80.41962,48.3512c-1.49957-1.08765-2.09741-1.36005-4.17212-2.90826-7.20813-4.89929-16.05634-10.32794-23.88989-14.52808-6.58936-3.53241-15.84271-7.9668-24.37726-11.79193-.0307-.0141-.06262-.02826-.09326-.04181-1.30499-.58472-2.59277-1.15472-3.85114-1.70502l-.43829,5.07819c1.29028,.56873,2.60876,1.15845,3.94446,1.76099,.27863,.12604,.55792,.25208,.83844,.37939,7.58313,3.4408,15.59534,7.29785,21.7041,10.57324,7.45605,3.99847,15.32581,8.82391,21.85193,13.19006,1.71381,1.10309,2.76282,1.8551,4.26978,2.92493,3.77008,2.65009,7.05263,4.96526,8.8763,6.63151-5.44275,4.84454-17.34395,12.52345-29.04708,18.92299-13.21674,7.22711-26.7392,13.10895-32.37531,14.72296-.34558-1.6134-.68933-3.86383-1.01093-6.65222-.01599-.14081-.03253-.28284-.04852-.42676-.07367-.65607-.14606-1.341-.21729-2.05365l-4.63983,1.91412c.07733,.7132,.15649,1.39447,.23627,2.0462,.01105,.08917,.02209,.18268,.03314,.27118,.3714,2.97656,.76544,5.2854,1.15155,6.83978,.26703,1.07233,.90845,1.95959,1.80585,2.49823,.92993,.55829,2.0686,.70709,3.20599,.41931,6.35919-1.60541,21.36646-8.34558,34.16705-15.34521,12.63672-6.91046,25.07503-15.01485,30.58528-20.13979,.86548-.80487,1.34918-1.85443,1.36206-2.95502,.02576-1.10309-.45117-2.1748-1.30621-3.00793-1.7666-1.72284-4.94478-4.0208-8.56508-6.61742Z"/><path class="cls-2" d="M47.47162,68.41925c7.68622-4.02863,14.80164-8.18634,20.94537-12.05078,1.50934-.94995,2.9549-1.87964,4.34088-2.78778,.55676-.36462,1.10431-.7262,1.64014-1.08276l-4.26355-2.96307c-.5506,.35602-1.10431,.71265-1.66284,1.06738-1.54071,.9826-3.10901,1.96082-4.67981,2.92493-6.72931,4.12885-13.52301,7.98163-18.55328,10.61755-8.68616,4.55304-16.70081,8.28345-23.44794,11.14996-1.77271,.76056-2.76526,1.2002-4.69202,1.93866-4.112,1.64783-7.58069,2.89789-10.22437,3.73779-1.14911-5.67767-2.05817-19.91736-2.05817-32.69244,0-12.00525,1.08771-26.76392,2.08636-32.56274,.83539,.25952,1.90405,.6358,3.15564,1.1062,.1424,.05347,.28485,.10632,.43152,.16229,1.3443,.51221,2.88556,1.12585,4.57111,1.82001l.43396-5.03577c-1.45966-.58905-2.8045-1.11414-4.00024-1.55927-.01227-.00494-.02576-.00989-.03864-.01477-1.7218-.64008-3.13354-1.11475-4.13348-1.37732-.36707-.0965-.73474-.14386-1.09692-.14386-.74146,0-1.45776,.19983-2.08514,.59027-.92932,.57794-1.56769,1.51379-1.79663,2.6347C1.11719,19.88477,0,35.27155,0,47.27869c0,12.22968,.88513,29.51752,2.36566,35.60529,.2793,1.14856,.9649,2.08502,1.93048,2.63593,.94586,.54047,2.06793,.65485,3.15869,.3222,1.18286-.3609,4.65094-1.46582,10.07343-3.5896,1.88623-.81836,3.47852-1.38776,4.66071-1.88397,6.58197-2.74103,15.12634-6.62579,25.28265-11.94928Z"/><path class="cls-1" d="M16.8064,72.91821c.04541,.75262,.09326,1.48859,.1424,2.20923l4.70367-1.94116c-.0448-.72369-.08838-1.46088-.13074-2.21411-.03619-.65485-.07178-1.31769-.1062-1.99402-.32959-6.59503-.53278-14.17572-.53278-22.38727,0-9.97131,.30444-18.3175,.75989-24.99371,.23694-2.94031,.40332-5.08557,.40332-5.08557,.47815-5.2276,1.04596-9.07111,1.59039-11.49677,3.97327,.88416,14.62854,5.24976,32.70245,15.00763,14.65131,7.91089,24.7738,14.92096,28.71332,18.65387-.96002,.862-2.08087,1.78491-3.31708,2.7478-.46594,.36279-.94653,.73047-1.44556,1.10431-.74091,.55585-1.51678,1.12274-2.32147,1.69885l4.15619,2.88867c1.03546-.76001,1.98877-1.47815,2.8493-2.14771,.30322-.23486,.59296-.46362,.87286-.68622,1.25037-.99548,2.27423-1.86487,3.04211-2.58185,.95941-.89581,1.47009-2.10773,1.3952-3.32642-.0614-1.02557-.54694-1.97247-1.34241-2.63531-4.6319-4.68585-16.49579-12.49957-30.31781-19.96222C46.02789,8.97577,30.44238,1.36255,24.12433,.19244c-.38672-.12854-.78754-.19244-1.18713-.19244-.56226,0-1.1214,.12665-1.63641,.37872-1.06622,.52203-1.85376,1.51691-2.16187,2.73065-.60339,2.38629-1.224,6.19781-1.74756,11.43408-.24738,2.81421-.32904,3.51331-.4389,5.04675-.53094,7.07532-.88574,16.07635-.88574,27.00067,0,8.51465,.20874,16.1925,.54449,22.82013,.06073,1.20392,.12579,2.37341,.19519,3.5072Z"/></g><g><path class="cls-3" d="M127.4045,22.53564h6.47413l17.87813,33.03295,17.43592-33.03295h6.47413v51.49936h-6.8418V35.63097l-13.53654,25.30822c-.58928,1.07968-1.1408,1.83939-1.65555,2.2811-.51475,.44121-1.11595,.66182-1.80262,.66182h-1.98646l-15.523-28.25114v38.40404h-6.91633V22.53564Z"/><path class="cls-3" d="M215.49493,60.49797h-21.48237l-5.00242,13.53703h-7.28401l19.93812-51.49936h3.16303c2.10869,0,3.60524,1.15272,4.48866,3.45767l18.46542,48.04169h-7.20948l-5.07695-13.53703Zm-19.42238-5.88584h17.36238l-8.60766-23.24822h-.07354l-8.68119,23.24822Z"/><path class="cls-3" d="M233.38498,22.53564h25.82297c3.97292,0,7.17371,1.11595,9.60138,3.34737,2.42767,2.23241,3.64201,5.16241,3.64201,8.79149v5.29706c0,2.55089-.79796,4.80765-2.3919,6.76877-1.59394,1.96211-3.76423,3.38413-6.51089,4.26706v.07354c2.89373,1.71766,5.05111,4.85584,6.47413,9.41705l4.04645,13.53703h-7.20948l-3.97292-13.24289c-.68766-2.30445-1.77877-4.11999-3.27433-5.44413-1.49655-1.32414-3.1998-1.98646-5.11272-1.98646h-14.12582v20.67348h-6.98888V22.53564Zm23.91004,24.6459c2.45252,0,4.42606-.66182,5.92261-1.98646,1.49556-1.32414,2.24383-3.06465,2.24383-5.22352v-5.37059c0-1.76535-.58829-3.18738-1.76585-4.26706-1.17657-1.07819-2.72182-1.61828-4.63474-1.61828h-18.68702v18.46591h16.92117Z"/><path class="cls-3" d="M282.35878,72.56379c-1.00664-.98081-1.50848-2.30495-1.50848-3.97292V22.53564h6.98888v45.31937h27.9565v6.17998h-29.35367c-1.71815,0-3.07856-.48991-4.08322-1.47121Z"/><path class="cls-3" d="M323.41753,22.53564h6.98888v51.49936h-6.98888V22.53564Z"/><path class="cls-3" d="M339.99487,22.53564h6.47413l27.22114,40.24293V22.53564h6.8418v51.49936h-6.40059l-27.29467-40.09585v40.09585h-6.8418V22.53564Z"/><path class="cls-3" d="M421.87871,74.035l-18.90763-23.68993-5.95938,6.40059v17.28934h-6.98888V22.53564h6.98888v25.38175l23.54236-25.38175h8.68119l-21.48237,22.80701,22.80701,28.69235h-8.68119Z"/></g></svg>